<svg width="1402" height="512" viewBox="0 0 1402 512" fill="none" xmlns="http://www.w3.org/2000/svg">
<g clip-path="url(#clip0_7305_44390)">
<rect width="512" height="512" rx="76.8" fill="url(#paint0_linear_7305_44390)"/>
<g opacity="0.5" filter="url(#filter0_f_7305_44390)">
<ellipse cx="494.295" cy="78.8258" rx="182.82" ry="162.009" transform="rotate(-114.217 494.295 78.8258)" fill="#21B175"/>
</g>
<path d="M207.702 365.78C208.494 357.075 208.753 348.367 208.477 339.662C208.325 335.453 208.059 331.244 207.668 327.039C205.221 300.299 198.692 273.961 188.903 248.816L188.088 247.221C165.244 186.161 136.286 157.427 124.047 145.456C122.823 162.217 119.972 202.922 142.812 263.184L143.627 264.779C166.242 324.828 195.247 353.593 207.702 365.78Z" fill="#FAFCFB"/>
<path d="M272.932 263.184C295.773 202.922 292.918 162.217 291.694 145.456C279.458 157.427 250.497 186.161 227.245 246.822L226.43 248.418C216.641 273.562 210.115 299.9 207.668 326.64C208.069 330.981 208.342 335.321 208.477 339.662C208.801 348.482 208.635 357.301 208.1 366.121C220.585 353.901 249.539 325.136 272.117 265.178L272.932 263.184Z" fill="#FAFCFB"/>
<path d="M71.4289 366.547C78.7704 352.18 96.3117 317.458 96.3117 256.798V255.202C95.9039 194.542 78.7704 159.82 71.4289 145.456C63.6796 159.82 46.5461 194.542 46.5461 255.202V256.798C46.5461 317.458 64.0874 352.18 71.4289 366.547Z" fill="#FAFCFB"/>
<path d="M464.643 366.547C465.867 349.786 468.725 309.078 445.881 248.816L445.066 247.221C422.222 186.161 392.853 157.427 380.617 145.456C380.712 146.484 380.803 147.512 380.88 148.543C381.837 160.686 381.777 172.856 381.025 185.364C380.968 186.006 380.904 186.652 380.84 187.294C383.449 213.233 389.877 238.773 399.382 263.184L400.198 264.779C423.038 325.44 452.407 354.573 464.643 366.547Z" fill="#FAFCFB"/>
<path d="M297 366.547C309.236 354.573 338.197 325.839 361.445 265.178L362.264 263.583C371.817 239.047 378.261 213.371 380.84 187.294C380.904 186.652 380.968 186.006 381.025 185.364C381.777 172.856 381.837 160.686 380.88 148.543C380.803 147.512 380.712 146.484 380.617 145.456C368.381 157.427 339.418 186.161 316.577 246.822L315.762 248.417C292.918 309.078 295.369 349.786 297 366.547Z" fill="#FAFCFB"/>
</g>
<path d="M731.071 418.912C691.476 418.912 661.357 408.782 640.712 388.524C620.068 368.112 609.745 340.466 609.745 305.584L683.696 306.041C683.696 321.882 687.625 333.916 695.482 342.141C703.339 350.214 716.126 354.251 733.844 354.251C748.634 354.251 760.343 351.128 768.97 344.883C777.752 338.638 782.143 330.032 782.143 319.064C782.143 305.965 776.674 296.292 765.735 290.047C754.951 283.802 739.929 280.679 720.671 280.679H696.868V219.902H720.209C751.022 219.902 766.428 208.859 766.428 186.772C766.428 177.481 763.424 170.245 757.416 165.066C751.561 159.887 743.396 157.45 732.919 157.755C722.751 157.755 714.509 160.344 708.192 165.523C702.03 170.55 698.255 177.633 696.868 186.772H623.149C625.768 158.592 637.169 135.973 657.351 118.912C677.533 101.7 703.031 93.0938 733.844 93.0938C765.889 93.0938 791.849 100.862 811.723 116.399C831.752 131.936 841.766 152.423 841.766 177.861C841.766 195.531 835.526 210.839 823.047 223.787C810.722 236.582 794.237 245.112 773.592 249.377C798.859 252.88 819.041 261.791 834.14 276.109C849.238 290.275 856.787 307.564 856.787 327.975C856.787 357.221 845.309 379.689 822.354 395.378C799.398 411.067 768.97 418.912 731.071 418.912Z" fill="#0F172B"/>
<path d="M1005.38 418.912C970.409 418.912 942.061 408.935 920.338 388.981C898.769 368.874 887.985 342.979 887.985 311.296C887.985 279.461 893.069 233.231 903.237 172.606C907.243 148.692 916.487 130.489 930.969 117.999C945.605 105.508 966.48 99.2628 993.596 99.2628H1049.29V163.695H1009.08C992.44 163.695 981.425 165.828 976.032 170.093C970.794 174.358 967.02 183.65 964.709 197.968L958.469 238.181C966.326 228.28 976.572 220.512 989.205 214.876C1001.99 209.24 1015.78 206.422 1030.57 206.422C1058.92 206.422 1082.26 215.866 1100.59 234.754C1119.08 253.49 1128.32 278.013 1128.32 308.326C1128.32 342.294 1117.31 369.255 1095.28 389.209C1073.4 409.011 1043.44 418.912 1005.38 418.912ZM958.931 312.21C958.931 326.985 963.091 338.638 971.411 347.168C979.73 355.698 991.208 359.963 1005.84 359.963C1020.33 360.268 1031.88 356.079 1040.51 347.396C1049.14 338.714 1053.53 326.833 1053.68 311.753C1053.68 297.435 1049.37 286.163 1040.74 277.937C1032.27 269.56 1020.63 265.371 1005.84 265.371C991.208 265.371 979.73 269.56 971.411 277.937C963.091 286.315 958.931 297.739 958.931 312.21Z" fill="#0F172B"/>
<path d="M1278.77 418.912C1240.56 418.912 1211.06 407.716 1190.26 385.325C1169.46 362.933 1159.06 330.108 1159.06 286.848V225.157C1159.06 181.898 1169.46 149.072 1190.26 126.681C1211.06 104.289 1240.56 93.0938 1278.77 93.0938C1317.75 93.0938 1347.87 104.137 1369.13 126.224C1390.39 148.311 1401.02 180.679 1401.02 223.33V286.848C1401.02 330.108 1390.31 362.933 1368.9 385.325C1347.63 407.716 1317.59 418.912 1278.77 418.912ZM1233.47 284.106C1233.47 309.697 1236.79 327.823 1243.41 338.486C1250.19 348.996 1262.13 354.251 1279.23 354.251C1297.1 354.251 1309.5 348.996 1316.44 338.486C1323.52 327.823 1327.07 309.697 1327.07 284.106V222.187C1327.07 198.577 1323.52 181.974 1316.44 172.378C1309.5 162.629 1297.1 157.755 1279.23 157.755C1262.13 157.755 1250.19 162.629 1243.41 172.378C1236.79 181.974 1233.47 198.577 1233.47 222.187V284.106Z" fill="#0F172B"/>
<defs>
<filter id="filter0_f_7305_44390" x="152.019" y="-277.256" width="684.551" height="712.163" filterUnits="userSpaceOnUse" color-interpolation-filters="sRGB">
<feFlood flood-opacity="0" result="BackgroundImageFix"/>
<feBlend mode="normal" in="SourceGraphic" in2="BackgroundImageFix" result="shape"/>
<feGaussianBlur stdDeviation="88.2731" result="effect1_foregroundBlur_7305_44390"/>
</filter>
<linearGradient id="paint0_linear_7305_44390" x1="78.9943" y1="-3.75852e-06" x2="512" y2="512" gradientUnits="userSpaceOnUse">
<stop stop-color="#0AAE6A"/>
<stop offset="1" stop-color="#15D2CB"/>
</linearGradient>
<clipPath id="clip0_7305_44390">
<rect width="512" height="512" rx="76.8" fill="white"/>
</clipPath>
</defs>
</svg>
